<svg width="218" height="259" viewBox="0 0 218 259" fill="none" xmlns="http://www.w3.org/2000/svg">
<path d="M107.187 129.518H94.3306C83.6121 129.518 74.9255 120.832 74.9255 110.113V96.9633C74.9255 93.4497 72.0773 90.5926 68.5548 90.5926H55.4051C44.6866 90.5926 36 81.906 36 71.1875V58.3306C36 47.6121 44.6866 38.9255 55.4051 38.9255H62.9471C65.7154 38.9255 67.9603 41.1704 67.9603 43.9387C67.9603 46.7071 65.7154 48.9519 62.9471 48.9519H55.4051C50.2233 48.9519 46.0175 53.1577 46.0175 58.3395V71.1964C46.0175 76.3781 50.2233 80.5839 55.4051 80.5839H68.5548C77.6051 80.5839 84.9519 87.9218 84.9519 96.9811V110.131C84.9519 115.313 89.1577 119.518 94.3395 119.518H107.196C112.378 119.518 116.584 115.313 116.584 110.131V100.406C116.584 92.1986 113.39 84.4791 107.587 78.6762L86.8774 57.958C79.1846 50.2563 74.9433 40.0258 74.9433 29.1387V19.4051C74.9433 8.6866 83.6299 0 94.3484 0H107.205C117.924 0 126.61 8.6866 126.61 19.4051V32.5548C126.61 36.0684 129.459 38.9255 132.981 38.9255H146.131C156.849 38.9255 165.536 47.6121 165.536 58.3306V71.1875C165.536 81.906 156.849 90.5926 146.131 90.5926H138.598C135.829 90.5926 133.584 88.3477 133.584 85.5794C133.584 82.811 135.829 80.5662 138.598 80.5662H146.131C151.313 80.5662 155.518 76.3604 155.518 71.1786V58.3217C155.518 53.1399 151.313 48.9342 146.131 48.9342H132.963C123.913 48.9342 116.575 41.5963 116.575 32.5459V19.4051C116.575 14.2233 112.369 10.0175 107.187 10.0175H94.3306C89.1488 10.0175 84.9431 14.2144 84.9431 19.4051V29.1298C84.9431 37.3373 88.1373 45.0567 93.9402 50.8596L114.65 71.569C122.351 79.2618 126.584 89.5012 126.584 100.388V110.113C126.593 120.823 117.906 129.518 107.187 129.518Z" fill="white"/>
<path d="M36.4509 185.601C34.0788 185.601 31.8905 185.167 29.8859 184.298C27.9147 183.396 26.2944 182.127 25.0248 180.49L29.5351 175.077C30.504 176.347 31.523 177.316 32.5921 177.984C33.6612 178.619 34.8138 178.936 36.05 178.936C39.3575 178.936 41.0113 176.998 41.0113 173.123V156.435H28.6832V149.92H49.0797V172.672C49.0797 177.015 48.0106 180.256 45.8724 182.394C43.7342 184.532 40.5937 185.601 36.4509 185.601ZM74.1378 185.601C71.3648 185.601 68.7922 185.15 66.4201 184.248C64.0815 183.346 62.0435 182.077 60.3062 180.44C58.6023 178.803 57.2659 176.881 56.297 174.676C55.3615 172.471 54.8938 170.066 54.8938 167.46C54.8938 164.854 55.3615 162.448 56.297 160.243C57.2659 158.038 58.619 156.117 60.3563 154.48C62.0936 152.843 64.1316 151.574 66.4702 150.672C68.8089 149.77 71.3481 149.319 74.0876 149.319C76.8606 149.319 79.3998 149.77 81.705 150.672C84.0437 151.574 86.065 152.843 87.7689 154.48C89.5062 156.117 90.8593 158.038 91.8282 160.243C92.797 162.415 93.2815 164.821 93.2815 167.46C93.2815 170.066 92.797 172.488 91.8282 174.727C90.8593 176.932 89.5062 178.853 87.7689 180.49C86.065 182.093 84.0437 183.346 81.705 184.248C79.3998 185.15 76.8773 185.601 74.1378 185.601ZM74.0876 178.686C75.6579 178.686 77.0945 178.418 78.3975 177.884C79.7339 177.349 80.9032 176.581 81.9055 175.578C82.9078 174.576 83.6762 173.39 84.2108 172.02C84.7787 170.651 85.0627 169.13 85.0627 167.46C85.0627 165.789 84.7787 164.269 84.2108 162.9C83.6762 161.53 82.9078 160.344 81.9055 159.341C80.9366 158.339 79.784 157.571 78.4476 157.036C77.1112 156.502 75.6579 156.234 74.0876 156.234C72.5174 156.234 71.0641 156.502 69.7277 157.036C68.4247 157.571 67.2721 158.339 66.2698 159.341C65.2675 160.344 64.4824 161.53 63.9144 162.9C63.3799 164.269 63.1126 165.789 63.1126 167.46C63.1126 169.097 63.3799 170.617 63.9144 172.02C64.4824 173.39 65.2508 174.576 66.2197 175.578C67.222 176.581 68.3913 177.349 69.7277 177.884C71.0641 178.418 72.5174 178.686 74.0876 178.686ZM99.3829 185V149.92H106.098L126.796 175.178H123.538V149.92H131.556V185H124.891L104.144 159.742H107.401V185H99.3829ZM156.895 185.601C154.122 185.601 151.55 185.15 149.178 184.248C146.839 183.346 144.801 182.077 143.064 180.44C141.36 178.803 140.023 176.881 139.054 174.676C138.119 172.471 137.651 170.066 137.651 167.46C137.651 164.854 138.119 162.448 139.054 160.243C140.023 158.038 141.376 156.117 143.114 154.48C144.851 152.843 146.889 151.574 149.228 150.672C151.566 149.77 154.105 149.319 156.845 149.319C159.618 149.319 162.157 149.77 164.462 150.672C166.801 151.574 168.822 152.843 170.526 154.48C172.264 156.117 173.617 158.038 174.586 160.243C175.554 162.415 176.039 164.821 176.039 167.46C176.039 170.066 175.554 172.488 174.586 174.727C173.617 176.932 172.264 178.853 170.526 180.49C168.822 182.093 166.801 183.346 164.462 184.248C162.157 185.15 159.635 185.601 156.895 185.601ZM156.845 178.686C158.415 178.686 159.852 178.418 161.155 177.884C162.491 177.349 163.661 176.581 164.663 175.578C165.665 174.576 166.434 173.39 166.968 172.02C167.536 170.651 167.82 169.13 167.82 167.46C167.82 165.789 167.536 164.269 166.968 162.9C166.434 161.53 165.665 160.344 164.663 159.341C163.694 158.339 162.541 157.571 161.205 157.036C159.869 156.502 158.415 156.234 156.845 156.234C155.275 156.234 153.821 156.502 152.485 157.036C151.182 157.571 150.029 158.339 149.027 159.341C148.025 160.344 147.24 161.53 146.672 162.9C146.137 164.269 145.87 165.789 145.87 167.46C145.87 169.097 146.137 170.617 146.672 172.02C147.24 173.39 148.008 174.576 148.977 175.578C149.979 176.581 151.149 177.349 152.485 177.884C153.821 178.418 155.275 178.686 156.845 178.686ZM28.5189 210.92H36.6375V246H28.5189V210.92ZM12.5825 246H4.46397V210.92H12.5825V246ZM29.1203 231.617H11.9811V224.751H29.1203V231.617ZM57.2153 246.401C54.3421 246.401 51.7863 245.8 49.5478 244.597C47.3428 243.394 45.5888 241.757 44.2858 239.686C43.0162 237.581 42.3814 235.192 42.3814 232.519C42.3814 229.813 43.0162 227.424 44.2858 225.353C45.5888 223.248 47.3428 221.611 49.5478 220.442C51.7863 219.239 54.3421 218.638 57.2153 218.638C60.0551 218.638 62.5943 219.239 64.8327 220.442C67.0712 221.611 68.8252 223.231 70.0947 225.303C71.3643 227.374 71.9991 229.78 71.9991 232.519C71.9991 235.192 71.3643 237.581 70.0947 239.686C68.8252 241.757 67.0712 243.394 64.8327 244.597C62.5943 245.8 60.0551 246.401 57.2153 246.401ZM57.2153 239.986C58.5183 239.986 59.6876 239.686 60.7233 239.084C61.759 238.483 62.5776 237.631 63.1789 236.528C63.7803 235.392 64.081 234.056 64.081 232.519C64.081 230.949 63.7803 229.613 63.1789 228.51C62.5776 227.408 61.759 226.556 60.7233 225.954C59.6876 225.353 58.5183 225.052 57.2153 225.052C55.9123 225.052 54.743 225.353 53.7073 225.954C52.6716 226.556 51.8364 227.408 51.2016 228.51C50.6002 229.613 50.2995 230.949 50.2995 232.519C50.2995 234.056 50.6002 235.392 51.2016 236.528C51.8364 237.631 52.6716 238.483 53.7073 239.084C54.743 239.686 55.9123 239.986 57.2153 239.986ZM86.2954 246.401C83.9901 246.401 81.7684 246.134 79.6302 245.599C77.5254 245.031 75.8549 244.33 74.6187 243.494L77.2247 237.881C78.4609 238.65 79.9142 239.285 81.5847 239.786C83.2885 240.254 84.959 240.487 86.5961 240.487C88.4002 240.487 89.6698 240.27 90.4048 239.836C91.1732 239.402 91.5574 238.8 91.5574 238.032C91.5574 237.397 91.2567 236.929 90.6554 236.629C90.0874 236.294 89.319 236.044 88.3501 235.877C87.3812 235.71 86.3121 235.543 85.1428 235.376C84.0069 235.209 82.8542 234.992 81.6849 234.724C80.5155 234.424 79.4464 233.989 78.4776 233.421C77.5087 232.853 76.7236 232.085 76.1222 231.116C75.5542 230.147 75.2702 228.894 75.2702 227.357C75.2702 225.654 75.7547 224.15 76.7236 222.847C77.7258 221.544 79.1625 220.525 81.0334 219.79C82.9043 219.022 85.1428 218.638 87.7487 218.638C89.5863 218.638 91.4572 218.838 93.3616 219.239C95.2659 219.64 96.8529 220.224 98.1224 220.993L95.5165 226.556C94.2135 225.787 92.8938 225.269 91.5574 225.002C90.2545 224.701 88.9849 224.551 87.7487 224.551C86.0114 224.551 84.7419 224.785 83.94 225.253C83.1382 225.72 82.7373 226.322 82.7373 227.057C82.7373 227.725 83.0213 228.226 83.5892 228.56C84.1906 228.894 84.9757 229.162 85.9446 229.362C86.9135 229.562 87.9659 229.746 89.1018 229.913C90.2712 230.047 91.4405 230.264 92.6098 230.565C93.7792 230.865 94.8316 231.3 95.767 231.868C96.7359 232.402 97.5211 233.154 98.1224 234.123C98.7238 235.058 99.0245 236.294 99.0245 237.831C99.0245 239.502 98.5233 240.989 97.5211 242.292C96.5188 243.561 95.0654 244.563 93.1611 245.298C91.2902 246.033 89.0016 246.401 86.2954 246.401ZM119.784 246.401C117.513 246.401 115.525 245.9 113.821 244.897C112.117 243.895 110.781 242.375 109.812 240.337C108.876 238.266 108.408 235.66 108.408 232.519C108.408 229.345 108.859 226.739 109.762 224.701C110.664 222.663 111.967 221.143 113.67 220.141C115.374 219.139 117.412 218.638 119.784 218.638C122.324 218.638 124.595 219.222 126.6 220.392C128.638 221.527 130.242 223.131 131.411 225.202C132.614 227.274 133.215 229.713 133.215 232.519C133.215 235.359 132.614 237.815 131.411 239.886C130.242 241.957 128.638 243.561 126.6 244.697C124.595 245.833 122.324 246.401 119.784 246.401ZM103.848 255.722V219.038H111.315V224.551L111.165 232.569L111.666 240.538V255.722H103.848ZM118.431 239.986C119.734 239.986 120.887 239.686 121.889 239.084C122.925 238.483 123.743 237.631 124.345 236.528C124.98 235.392 125.297 234.056 125.297 232.519C125.297 230.949 124.98 229.613 124.345 228.51C123.743 227.408 122.925 226.556 121.889 225.954C120.887 225.353 119.734 225.052 118.431 225.052C117.128 225.052 115.959 225.353 114.923 225.954C113.888 226.556 113.069 227.408 112.468 228.51C111.866 229.613 111.566 230.949 111.566 232.519C111.566 234.056 111.866 235.392 112.468 236.528C113.069 237.631 113.888 238.483 114.923 239.084C115.959 239.686 117.128 239.986 118.431 239.986ZM138.449 246V219.038H146.266V246H138.449ZM142.357 215.28C140.921 215.28 139.751 214.862 138.849 214.027C137.947 213.192 137.496 212.156 137.496 210.92C137.496 209.684 137.947 208.648 138.849 207.813C139.751 206.978 140.921 206.56 142.357 206.56C143.794 206.56 144.963 206.961 145.865 207.763C146.768 208.531 147.219 209.533 147.219 210.77C147.219 212.073 146.768 213.158 145.865 214.027C144.997 214.862 143.827 215.28 142.357 215.28ZM164.547 246.401C161.373 246.401 158.901 245.599 157.13 243.995C155.36 242.358 154.474 239.936 154.474 236.729V213.075H162.292V236.629C162.292 237.765 162.593 238.65 163.194 239.285C163.795 239.886 164.614 240.187 165.65 240.187C166.886 240.187 167.938 239.853 168.807 239.184L170.912 244.697C170.11 245.265 169.141 245.699 168.005 246C166.903 246.267 165.75 246.401 164.547 246.401ZM150.315 225.654V219.64H169.007V225.654H150.315ZM191.838 246V240.738L191.337 239.585V230.164C191.337 228.493 190.819 227.19 189.783 226.255C188.781 225.319 187.228 224.852 185.123 224.852C183.686 224.852 182.266 225.086 180.863 225.553C179.493 225.988 178.324 226.589 177.355 227.357L174.549 221.895C176.019 220.859 177.789 220.057 179.861 219.489C181.932 218.921 184.037 218.638 186.175 218.638C190.284 218.638 193.475 219.606 195.747 221.544C198.019 223.482 199.155 226.505 199.155 230.615V246H191.838ZM183.619 246.401C181.514 246.401 179.71 246.05 178.207 245.349C176.703 244.613 175.551 243.628 174.749 242.392C173.947 241.156 173.546 239.769 173.546 238.232C173.546 236.629 173.93 235.225 174.699 234.023C175.501 232.82 176.754 231.884 178.457 231.216C180.161 230.515 182.383 230.164 185.123 230.164H192.289V234.724H185.975C184.137 234.724 182.868 235.025 182.166 235.626C181.498 236.228 181.164 236.979 181.164 237.881C181.164 238.884 181.548 239.686 182.316 240.287C183.118 240.855 184.204 241.139 185.574 241.139C186.877 241.139 188.046 240.838 189.082 240.237C190.117 239.602 190.869 238.683 191.337 237.481L192.54 241.089C191.972 242.826 190.936 244.146 189.433 245.048C187.929 245.95 185.991 246.401 183.619 246.401ZM206.23 246V208.815H214.048V246H206.23Z" fill="white"/>
</svg>
